<svg xmlns="http://www.w3.org/2000/svg" viewBox="0 0 553.18 103.02"><defs><style>.cls-1{fill:#010f19;}.cls-2{fill:#035131;}.cls-3{fill:#03c04a;}</style></defs><g id="Layer_2" data-name="Layer 2"><g id="Layer_1-2" data-name="Layer 1"><path class="cls-1" d="M116.86,8.37h13.81V54s5-7.14,8.33-11.19L166.63,8.37h16.31L154.48,44.45l31.43,41.07H169.72L145.79,54,130.67,72.19V85.52H116.86Z"/><path class="cls-1" d="M181.66,56.11C181.66,39,195.59,25.4,213,25.4S244.28,39,244.28,56.11,230.35,86.71,213,86.71,181.66,73.14,181.66,56.11Zm49.17,0a17.86,17.86,0,1,0-35.72,0,17.86,17.86,0,0,0,35.72,0Z"/><path class="cls-1" d="M249.91,62.42V26.59h13.21V60.52c0,9.4,4.17,13.45,12.39,13.45,9.16,0,14.05-7.62,14.05-16.07V26.59h13.21V85.52h-12.5v-9c-3.57,6.43-11.79,10.24-18.93,10.24C255.74,86.71,249.91,77.9,249.91,62.42Z"/><path class="cls-1" d="M311.2,75.76l22.74-28.22c3-3.57,8.45-9.29,8.45-9.29h-30V26.59h46.43v9.76L336.2,63.85c-3.33,4.17-8.93,10-8.93,10h32.51V85.52H311.2Z"/><path class="cls-1" d="M375,90.64c7,0,10-2.5,13-8.45l1.19-2.38L363.7,26.59h13.58L391.45,58c1.78,3.93,3.81,9.29,3.81,9.29s2.61-6.91,3.8-9.89L411.8,26.59h13.34L398.23,88.14C392.16,101.83,381.92,103,375,103Z"/><path class="cls-1" d="M431.55,26.59h13.21V35c4.41-6.55,11.19-9.64,19.05-9.64C479.76,25.4,485,36,485,51.71V85.52H471.79V53.38c0-9.65-2.15-15.24-12-15.24-8.69,0-15,6.78-15,16.54V85.52H431.55Z"/><path class="cls-1" d="M493.05,56.11c0-17,11.08-30.71,27.27-30.71A25.34,25.34,0,0,1,540,34.09v-7.5h13.22V85.52H540V78.14c-4.64,5.48-11.66,8.57-19.64,8.57C504.13,86.71,493.05,73,493.05,56.11Zm46.91,0c0-10.35-6.9-18-16.31-18-10,0-17.14,7.62-17.14,18S513.65,74,523.65,74C532.94,74,540,66.59,540,56.11Z"/><path class="cls-2" d="M35,77.32v2.09h-.15A14.38,14.38,0,0,0,35,77.32Z"/><path class="cls-2" d="M74.63,46.05,90.69,62.11A17.57,17.57,0,0,1,65.84,87a22.72,22.72,0,0,1,0-32.12Z"/><path class="cls-3" d="M90.61,5.06a17.89,17.89,0,0,1-.14,25.16L65.84,54.84a22.72,22.72,0,0,0,0,32.12l-20.6-20.6a28.72,28.72,0,0,1,0-40.62l20.6-20.6a17.59,17.59,0,0,1,24.77-.08Z"/><circle class="cls-3" cx="17.27" cy="75.26" r="17.27"/></g></g></svg>