<svg id="Layer_1" data-name="Layer 1" xmlns="http://www.w3.org/2000/svg" viewBox="0 0 1300 900"><defs><style>.cls-1{fill:#010f19;}.cls-2{fill:#035131;}.cls-3{fill:#03c04a;}</style></defs><path class="cls-1" d="M490.27,406.86h13.81v45.6s5-7.14,8.34-11.19L540,406.86h16.31l-28.46,36.07L559.33,484h-16.2L519.2,452.46l-15.12,18.21V484H490.27Z"/><path class="cls-1" d="M555.07,454.6c0-17.14,13.93-30.71,31.31-30.71s31.31,13.57,31.31,30.71-13.93,30.6-31.31,30.6S555.07,471.63,555.07,454.6Zm49.17,0a17.86,17.86,0,1,0-17.86,17.86A17.5,17.5,0,0,0,604.24,454.6Z"/><path class="cls-1" d="M623.32,460.91V425.08h13.22V459c0,9.4,4.16,13.45,12.38,13.45,9.17,0,14.05-7.62,14.05-16.07V425.08h13.21V484h-12.5V475c-3.57,6.43-11.79,10.24-18.93,10.24C629.15,485.2,623.32,476.39,623.32,460.91Z"/><path class="cls-1" d="M684.61,474.25,707.35,446c3-3.57,8.45-9.29,8.45-9.29h-30V425.08h46.43v9.76l-22.62,27.5c-3.33,4.17-8.93,10-8.93,10h32.51V484H684.61Z"/><path class="cls-1" d="M748.43,489.13c7,0,10-2.5,13-8.45l1.19-2.39-25.47-53.21h13.57l14.17,31.43c1.78,3.93,3.81,9.28,3.81,9.28s2.62-6.9,3.81-9.88l12.74-30.83h13.33l-26.91,61.55c-6.07,13.69-16.31,14.88-23.21,14.88Z"/><path class="cls-1" d="M805,425.08h13.21v8.45c4.41-6.55,11.19-9.64,19.05-9.64,16,0,21.19,10.59,21.19,26.31V484H845.2V451.86c0-9.64-2.14-15.24-12-15.24-8.69,0-15,6.79-15,16.55V484H805Z"/><path class="cls-1" d="M866.46,454.6c0-17,11.08-30.71,27.27-30.71a25.34,25.34,0,0,1,19.64,8.69v-7.5h13.22V484H913.37v-7.38c-4.64,5.48-11.66,8.57-19.64,8.57C877.54,485.2,866.46,471.51,866.46,454.6Zm46.91,0c0-10.36-6.9-18-16.31-18-10,0-17.14,7.62-17.14,18s7.14,17.86,17.14,17.86C906.35,472.46,913.37,465.08,913.37,454.6Z"/><path class="cls-2" d="M408.41,475.81v2.09h-.15A14.38,14.38,0,0,0,408.41,475.81Z"/><path class="cls-2" d="M448,444.54,464.1,460.6a17.57,17.57,0,0,1-24.85,24.84,22.71,22.71,0,0,1,0-32.11Z"/><path class="cls-3" d="M464,403.55a17.87,17.87,0,0,1-.14,25.15l-24.63,24.63a22.71,22.71,0,0,0,0,32.11l-20.6-20.6a28.72,28.72,0,0,1,0-40.61l20.6-20.6a17.59,17.59,0,0,1,24.77-.08Z"/><circle class="cls-3" cx="390.68" cy="473.74" r="17.27"/></svg>